# xmcd CD database file
#
# Track frame offsets:
#	200
#	15630
#	36745
#	53057
#	69949
#	89231
#	105564
#	123099
#	138669
#	155874
#
# Disc length: 2250 seconds
#
# Revision: 0
# Processed by: cddbd v1.5.1PL2 Copyright (c) Steve Scherf et al.
# Submitted via: CDex 1.51
#
DISCID=8e08c80a
DTITLE=Armand and the Symptoms - Positive Music for Humanity
DYEAR=1995
DGENRE=New Age
TTITLE0=My Karma Ran Over My Dogma
TTITLE1=Whatsoever You Do
TTITLE2=Berlin (The Wall Inside)
TTITLE3=Hugh Manatee
TTITLE4=Finally Found Someone
TTITLE5=Too Much T.V.
TTITLE6=Everybody Bleeds
TTITLE7=She's My Best Friend
TTITLE8=The Symptoms of Love
TTITLE9=Bayou Boy
EXTD=YEAR: 1995
EXTT0=
EXTT1=
EXTT2=
EXTT3=
EXTT4=
EXTT5=
EXTT6=
EXTT7=
EXTT8=
EXTT9=
PLAYORDER=
